<svg width="147" height="42" viewBox="0 0 147 42" fill="none" xmlns="http://www.w3.org/2000/svg">
<rect x="0.5" y="0.500092" width="15" height="15" rx="3.5" fill="#18181B" stroke="#27272A"/>
<rect x="20.5" y="0.500092" width="15" height="15" rx="3.5" fill="#14532D" stroke="#15803D"/>
<rect x="40.5" y="0.500092" width="15" height="15" rx="3.5" fill="#166534" stroke="#16A34A"/>
<rect x="60.5" y="0.500092" width="15" height="15" rx="3.5" fill="#15803D" stroke="#22C55E"/>
<rect x="80.5" y="0.500092" width="15" height="15" rx="3.5" fill="#16A34A" stroke="#4ADE80"/>
<rect x="100.5" y="0.500092" width="15" height="15" rx="3.5" fill="#22C55E" stroke="#86EFAC"/>
<path d="M1.10085 37V26.0909H4.47443V28.0796H4.58807C4.78693 27.3599 5.11127 26.8248 5.56108 26.4744C6.01089 26.1193 6.53409 25.9418 7.13068 25.9418C7.29167 25.9418 7.45739 25.9536 7.62784 25.9773C7.7983 25.9962 7.95691 26.027 8.10369 26.0696V29.0881C7.93797 29.0313 7.72017 28.9863 7.45028 28.9531C7.18513 28.92 6.94839 28.9034 6.74006 28.9034C6.32813 28.9034 5.95644 28.9958 5.625 29.1804C5.2983 29.3603 5.04025 29.6137 4.85085 29.9404C4.66619 30.2623 4.57386 30.6411 4.57386 31.0767V37H1.10085ZM14.0447 37.206C12.8989 37.206 11.9141 36.9716 11.0902 36.5029C10.2711 36.0294 9.63897 35.3712 9.19389 34.5284C8.75355 33.6809 8.53338 32.6984 8.53338 31.581C8.53338 30.4588 8.75355 29.4763 9.19389 28.6335C9.63897 27.786 10.2711 27.1279 11.0902 26.6591C11.9141 26.1856 12.8989 25.9489 14.0447 25.9489C15.1906 25.9489 16.1731 26.1856 16.9922 26.6591C17.8161 27.1279 18.4482 27.786 18.8885 28.6335C19.3336 29.4763 19.5561 30.4588 19.5561 31.581C19.5561 32.6984 19.3336 33.6809 18.8885 34.5284C18.4482 35.3712 17.8161 36.0294 16.9922 36.5029C16.1731 36.9716 15.1906 37.206 14.0447 37.206ZM14.0661 34.5852C14.4827 34.5852 14.8355 34.4574 15.1243 34.2017C15.4131 33.946 15.6333 33.5909 15.7848 33.1364C15.9411 32.6818 16.0192 32.1563 16.0192 31.5597C16.0192 30.9536 15.9411 30.4233 15.7848 29.9688C15.6333 29.5142 15.4131 29.1591 15.1243 28.9034C14.8355 28.6477 14.4827 28.5199 14.0661 28.5199C13.6352 28.5199 13.2706 28.6477 12.9723 28.9034C12.6787 29.1591 12.4538 29.5142 12.2976 29.9688C12.1461 30.4233 12.0703 30.9536 12.0703 31.5597C12.0703 32.1563 12.1461 32.6818 12.2976 33.1364C12.4538 33.5909 12.6787 33.946 12.9723 34.2017C13.2706 34.4574 13.6352 34.5852 14.0661 34.5852ZM28.3736 32.2912V26.0909H31.8395V37H28.5298V34.9688H28.4162C28.1747 35.6364 27.7628 36.1667 27.1804 36.5597C26.6027 36.9479 25.9044 37.1421 25.0852 37.1421C24.3419 37.1421 23.6884 36.9716 23.125 36.6307C22.5616 36.2898 22.1236 35.8139 21.8111 35.2031C21.4986 34.5876 21.34 33.8679 21.3352 33.044V26.0909H24.8082V32.3622C24.813 32.9541 24.9692 33.4205 25.277 33.7614C25.5848 34.1023 26.0038 34.2727 26.5341 34.2727C26.8797 34.2727 27.1899 34.197 27.4645 34.0455C27.7438 33.8892 27.964 33.6643 28.125 33.3708C28.2907 33.0725 28.3736 32.7126 28.3736 32.2912ZM40.2077 26.0909V28.6477H33.3256V26.0909H40.2077ZM34.7674 23.4773H38.2404V33.5696C38.2404 33.7827 38.2736 33.9555 38.3398 34.0881C38.4109 34.2159 38.5127 34.3083 38.6452 34.3651C38.7778 34.4172 38.9364 34.4432 39.1211 34.4432C39.2537 34.4432 39.3933 34.4314 39.5401 34.4077C39.6916 34.3793 39.8053 34.3556 39.881 34.3367L40.4066 36.8438C40.2409 36.8911 40.0065 36.9503 39.7035 37.0213C39.4052 37.0923 39.0477 37.1373 38.631 37.1563C37.8166 37.1941 37.1183 37.0994 36.5359 36.8722C35.9582 36.6402 35.5155 36.2803 35.2077 35.7926C34.9047 35.3049 34.7579 34.6918 34.7674 33.9531V23.4773ZM41.9798 37V26.0909H45.4528V37H41.9798ZM43.7198 24.8196C43.2321 24.8196 42.8131 24.6586 42.4627 24.3367C42.1123 24.01 41.9371 23.617 41.9371 23.1577C41.9371 22.7031 42.1123 22.3149 42.4627 21.9929C42.8131 21.6662 43.2321 21.5029 43.7198 21.5029C44.2122 21.5029 44.6313 21.6662 44.9769 21.9929C45.3273 22.3149 45.5025 22.7031 45.5025 23.1577C45.5025 23.617 45.3273 24.01 44.9769 24.3367C44.6313 24.6586 44.2122 24.8196 43.7198 24.8196ZM51.1364 30.7784V37H47.6634V26.0909H50.9659V28.0938H51.0866C51.3281 27.4262 51.7401 26.903 52.3224 26.5242C52.9048 26.1406 53.5985 25.9489 54.4034 25.9489C55.1705 25.9489 55.8357 26.1217 56.3991 26.4673C56.9673 26.8083 57.4077 27.2865 57.7202 27.902C58.0374 28.5128 58.1937 29.2278 58.1889 30.0469V37H54.7159V30.7287C54.7206 30.1226 54.5668 29.6492 54.2543 29.3083C53.9465 28.9673 53.518 28.7969 52.9688 28.7969C52.6042 28.7969 52.2822 28.8774 52.0028 29.0384C51.7282 29.1946 51.5152 29.4195 51.3636 29.7131C51.2169 30.0066 51.1411 30.3618 51.1364 30.7784ZM65.4386 37.206C64.2975 37.206 63.3126 36.9811 62.484 36.5313C61.6602 36.0767 61.0257 35.4304 60.5806 34.5923C60.1403 33.7495 59.9201 32.7481 59.9201 31.5881C59.9201 30.4612 60.1426 29.4763 60.5877 28.6335C61.0328 27.786 61.6602 27.1279 62.4698 26.6591C63.2795 26.1856 64.2335 25.9489 65.332 25.9489C66.1085 25.9489 66.8188 26.0696 67.4627 26.3111C68.1067 26.5526 68.663 26.9101 69.1317 27.3835C69.6005 27.857 69.9651 28.4418 70.2255 29.1378C70.4859 29.8291 70.6161 30.6222 70.6161 31.5171V32.3835H61.1346V30.3665H67.3846C67.3799 29.9972 67.2923 29.6681 67.1218 29.3793C66.9513 29.0905 66.717 28.8655 66.4187 28.7046C66.1251 28.5388 65.7866 28.456 65.4031 28.456C65.0148 28.456 64.6668 28.5436 64.359 28.7188C64.0513 28.8892 63.8074 29.1236 63.6275 29.4219C63.4476 29.7155 63.3529 30.0493 63.3434 30.4233V32.4759C63.3434 32.9209 63.431 33.3116 63.6062 33.6477C63.7814 33.9792 64.0299 34.2372 64.3519 34.4219C64.6739 34.6065 65.0574 34.6989 65.5025 34.6989C65.8103 34.6989 66.0896 34.6563 66.3406 34.571C66.5915 34.4858 66.8069 34.3603 66.9869 34.1946C67.1668 34.0289 67.3017 33.8253 67.3917 33.5838L70.5806 33.6762C70.448 34.3911 70.1568 35.0137 69.707 35.544C69.262 36.0696 68.6772 36.4792 67.9528 36.7727C67.2283 37.0616 66.3903 37.206 65.4386 37.206ZM81.7791 37.206C80.6286 37.206 79.6413 36.9692 78.8175 36.4958C77.9983 36.0223 77.3686 35.3641 76.9283 34.5213C76.4879 33.6738 76.2678 32.6937 76.2678 31.581C76.2678 30.4636 76.4879 29.4834 76.9283 28.6406C77.3733 27.7931 78.0054 27.1326 78.8246 26.6591C79.6484 26.1856 80.6309 25.9489 81.772 25.9489C82.7805 25.9489 83.6589 26.1312 84.407 26.4958C85.1598 26.8603 85.7469 27.3764 86.1683 28.044C86.5945 28.7069 86.8194 29.4858 86.843 30.3807H83.5973C83.531 29.822 83.3416 29.384 83.0291 29.0668C82.7214 28.7495 82.3189 28.5909 81.8217 28.5909C81.4193 28.5909 81.0665 28.7046 80.7635 28.9318C80.4605 29.1544 80.2237 29.4858 80.0533 29.9262C79.8875 30.3618 79.8047 30.9015 79.8047 31.5455C79.8047 32.1894 79.8875 32.7339 80.0533 33.179C80.2237 33.6193 80.4605 33.9531 80.7635 34.1804C81.0665 34.403 81.4193 34.5142 81.8217 34.5142C82.1437 34.5142 82.4278 34.4456 82.674 34.3083C82.925 34.1709 83.1309 33.9697 83.2919 33.7046C83.4529 33.4347 83.5547 33.108 83.5973 32.7244H86.843C86.8099 33.6241 86.585 34.4101 86.1683 35.0824C85.7564 35.7548 85.1764 36.278 84.4283 36.652C83.6849 37.0213 82.8018 37.206 81.7791 37.206ZM93.7127 37.206C92.5669 37.206 91.582 36.9716 90.7582 36.5029C89.939 36.0294 89.3069 35.3712 88.8619 34.5284C88.4215 33.6809 88.2013 32.6984 88.2013 31.581C88.2013 30.4588 88.4215 29.4763 88.8619 28.6335C89.3069 27.786 89.939 27.1279 90.7582 26.6591C91.582 26.1856 92.5669 25.9489 93.7127 25.9489C94.8585 25.9489 95.841 26.1856 96.6602 26.6591C97.484 27.1279 98.1161 27.786 98.5565 28.6335C99.0015 29.4763 99.2241 30.4588 99.2241 31.581C99.2241 32.6984 99.0015 33.6809 98.5565 34.5284C98.1161 35.3712 97.484 36.0294 96.6602 36.5029C95.841 36.9716 94.8585 37.206 93.7127 37.206ZM93.734 34.5852C94.1507 34.5852 94.5034 34.4574 94.7923 34.2017C95.0811 33.946 95.3013 33.5909 95.4528 33.1364C95.609 32.6818 95.6871 32.1563 95.6871 31.5597C95.6871 30.9536 95.609 30.4233 95.4528 29.9688C95.3013 29.5142 95.0811 29.1591 94.7923 28.9034C94.5034 28.6477 94.1507 28.5199 93.734 28.5199C93.3031 28.5199 92.9386 28.6477 92.6403 28.9034C92.3467 29.1591 92.1218 29.5142 91.9656 29.9688C91.814 30.4233 91.7383 30.9536 91.7383 31.5597C91.7383 32.1563 91.814 32.6818 91.9656 33.1364C92.1218 33.5909 92.3467 33.946 92.6403 34.2017C92.9386 34.4574 93.3031 34.5852 93.734 34.5852ZM104.476 30.7784V37H101.003V26.0909H104.306V28.0938H104.426C104.668 27.4262 105.08 26.903 105.662 26.5242C106.245 26.1406 106.938 25.9489 107.743 25.9489C108.51 25.9489 109.176 26.1217 109.739 26.4673C110.307 26.8083 110.748 27.2865 111.06 27.902C111.377 28.5128 111.533 29.2278 111.529 30.0469V37H108.056V30.7287C108.06 30.1226 107.907 29.6492 107.594 29.3083C107.286 28.9673 106.858 28.7969 106.309 28.7969C105.944 28.7969 105.622 28.8774 105.343 29.0384C105.068 29.1946 104.855 29.4195 104.703 29.7131C104.557 30.0066 104.481 30.3618 104.476 30.7784ZM119.837 26.0909V28.6477H112.955V26.0909H119.837ZM114.396 23.4773H117.869V33.5696C117.869 33.7827 117.902 33.9555 117.969 34.0881C118.04 34.2159 118.142 34.3083 118.274 34.3651C118.407 34.4172 118.565 34.4432 118.75 34.4432C118.883 34.4432 119.022 34.4314 119.169 34.4077C119.321 34.3793 119.434 34.3556 119.51 34.3367L120.036 36.8438C119.87 36.8911 119.635 36.9503 119.332 37.0213C119.034 37.0923 118.677 37.1373 118.26 37.1563C117.446 37.1941 116.747 37.0994 116.165 36.8722C115.587 36.6402 115.144 36.2803 114.837 35.7926C114.534 35.3049 114.387 34.6918 114.396 33.9531V23.4773ZM121.609 37V26.0909H124.982V28.0796H125.096C125.295 27.3599 125.619 26.8248 126.069 26.4744C126.519 26.1193 127.042 25.9418 127.638 25.9418C127.799 25.9418 127.965 25.9536 128.136 25.9773C128.306 25.9962 128.465 26.027 128.612 26.0696V29.0881C128.446 29.0313 128.228 28.9863 127.958 28.9531C127.693 28.92 127.456 28.9034 127.248 28.9034C126.836 28.9034 126.464 28.9958 126.133 29.1804C125.806 29.3603 125.548 29.6137 125.359 29.9404C125.174 30.2623 125.082 30.6411 125.082 31.0767V37H121.609ZM134.553 37.206C133.407 37.206 132.422 36.9716 131.598 36.5029C130.779 36.0294 130.147 35.3712 129.702 34.5284C129.261 33.6809 129.041 32.6984 129.041 31.581C129.041 30.4588 129.261 29.4763 129.702 28.6335C130.147 27.786 130.779 27.1279 131.598 26.6591C132.422 26.1856 133.407 25.9489 134.553 25.9489C135.698 25.9489 136.681 26.1856 137.5 26.6591C138.324 27.1279 138.956 27.786 139.396 28.6335C139.841 29.4763 140.064 30.4588 140.064 31.581C140.064 32.6984 139.841 33.6809 139.396 34.5284C138.956 35.3712 138.324 36.0294 137.5 36.5029C136.681 36.9716 135.698 37.206 134.553 37.206ZM134.574 34.5852C134.991 34.5852 135.343 34.4574 135.632 34.2017C135.921 33.946 136.141 33.5909 136.293 33.1364C136.449 32.6818 136.527 32.1563 136.527 31.5597C136.527 30.9536 136.449 30.4233 136.293 29.9688C136.141 29.5142 135.921 29.1591 135.632 28.9034C135.343 28.6477 134.991 28.5199 134.574 28.5199C134.143 28.5199 133.778 28.6477 133.48 28.9034C133.187 29.1591 132.962 29.5142 132.805 29.9688C132.654 30.4233 132.578 30.9536 132.578 31.5597C132.578 32.1563 132.654 32.6818 132.805 33.1364C132.962 33.5909 133.187 33.946 133.48 34.2017C133.778 34.4574 134.143 34.5852 134.574 34.5852ZM145.316 22.4546V37H141.843V22.4546H145.316Z" fill="white"/>
</svg>
